HIERARCHY
ROOT Hips
{
	OFFSET 0.000000 0.000000 0.000000
	CHANNELS 6 Xposition Yposition Zposition Zrotation Yrotation Xrotation 
	JOINT LHipJoint
	{
		OFFSET 0.000000 0.000000 0.000000
		CHANNELS 3 Zrotation Yrotation Xrotation
		JOINT LeftUpLeg
		{
			OFFSET 1.363060 -1.794630 0.839290
			CHANNELS 3 Zrotation Yrotation Xrotation
			JOINT LeftLeg
			{
				OFFSET 2.448110 -6.726130 0.000000
				CHANNELS 3 Zrotation Yrotation Xrotation
				JOINT LeftFoot
				{
					OFFSET 2.562200 -7.039590 0.000000
					CHANNELS 3 Zrotation Yrotation Xrotation
					JOINT LeftToeBase
					{
						OFFSET 0.157640 -0.433110 2.322550
						CHANNELS 3 Zrotation Yrotation Xrotation
						End Site
						{
							OFFSET 0.000000 0.000000 0.000000
						}
					}
				}
			}
		}
	}
	JOINT RHipJoint
	{
		OFFSET 0.000000 0.000000 0.000000
		CHANNELS 3 Zrotation Yrotation Xrotation
		JOINT RightUpLeg
		{
			OFFSET -1.305520 -1.794630 0.839290
			CHANNELS 3 Zrotation Yrotation Xrotation
			JOINT RightLeg
			{
				OFFSET -2.542530 -6.985550 0.000000
				CHANNELS 3 Zrotation Yrotation Xrotation
				JOINT RightFoot
				{
					OFFSET -2.568260 -7.056230 0.000000
					CHANNELS 3 Zrotation Yrotation Xrotation
					JOINT RightToeBase
					{
						OFFSET -0.164730 -0.452590 2.363150
						CHANNELS 3 Zrotation Yrotation Xrotation
						End Site
						{
							OFFSET 0.000000 0.000000 0.000000
						}
					}
				}
			}
		}
	}
	JOINT LowerBack
	{
		OFFSET 0.000000 0.000000 0.000000
		CHANNELS 3 Zrotation Yrotation Xrotation
		JOINT Spine
		{
			OFFSET 0.028270 2.035590 -0.193380
			CHANNELS 3 Zrotation Yrotation Xrotation
			JOINT Spine1
			{
				OFFSET 0.056720 2.048850 -0.042750
				CHANNELS 3 Zrotation Yrotation Xrotation
				JOINT Neck
				{
					OFFSET 0.000000 0.000000 0.000000
					CHANNELS 3 Zrotation Yrotation Xrotation
					JOINT Neck1
					{
						OFFSET -0.054170 1.746240 0.172020
						CHANNELS 3 Zrotation Yrotation Xrotation
						JOINT Head
						{
							OFFSET 0.104070 1.761360 -0.123970
							CHANNELS 3 Zrotation Yrotation Xrotation
							End Site
							{
								OFFSET 0.000000 0.000000 0.000000
							}
						}
					}
				}
				JOINT LeftShoulder
				{
					OFFSET 0.000000 0.000000 0.000000
					CHANNELS 3 Zrotation Yrotation Xrotation
					JOINT LeftArm
					{
						OFFSET 3.362410 1.200890 -0.311210
						CHANNELS 3 Zrotation Yrotation Xrotation
						JOINT LeftForeArm
						{
							OFFSET 4.983000 -0.000000 -0.000000
							CHANNELS 3 Zrotation Yrotation Xrotation
							JOINT LeftHand
							{
								OFFSET 3.483560 -0.000000 -0.000000
								CHANNELS 3 Zrotation Yrotation Xrotation
								JOINT LeftFingerBase
								{
									OFFSET 0.000000 0.000000 0.000000
									CHANNELS 3 Zrotation Yrotation Xrotation
									JOINT LeftHandIndex1
									{
										OFFSET 0.715260 -0.000000 -0.000000
										CHANNELS 3 Zrotation Yrotation Xrotation
										End Site
										{
											OFFSET 0.000000 0.000000 0.000000
										}
									}
								}
								JOINT LThumb
								{
									OFFSET 0.000000 0.000000 0.000000
									CHANNELS 3 Zrotation Yrotation Xrotation
									End Site
									{
										OFFSET 0.000000 0.000000 0.000000
									}
								}
							}
						}
					}
				}
				JOINT RightShoulder
				{
					OFFSET 0.000000 0.000000 0.000000
					CHANNELS 3 Zrotation Yrotation Xrotation
					JOINT RightArm
					{
						OFFSET -3.136600 1.374050 -0.404650
						CHANNELS 3 Zrotation Yrotation Xrotation
						JOINT RightForeArm
						{
							OFFSET -5.241900 -0.000000 -0.000000
							CHANNELS 3 Zrotation Yrotation Xrotation
							JOINT RightHand
							{
								OFFSET -3.444170 -0.000000 -0.000000
								CHANNELS 3 Zrotation Yrotation Xrotation
								JOINT RightFingerBase
								{
									OFFSET 0.000000 0.000000 0.000000
									CHANNELS 3 Zrotation Yrotation Xrotation
									JOINT RightHandIndex1
									{
										OFFSET -0.622530 -0.000000 -0.000000
										CHANNELS 3 Zrotation Yrotation Xrotation
										End Site
										{
											OFFSET 0.000000 0.000000 0.000000
										}
									}
								}
								JOINT RThumb
								{
									OFFSET 0.000000 0.000000 0.000000
									CHANNELS 3 Zrotation Yrotation Xrotation
									End Site
									{
										OFFSET 0.000000 0.000000 0.000000
									}
								}
							}
						}
					}
				}
			}
		}
	}
}
MOTION
Frames: 12
Frame Time: 0.008333
0.125966 17.955993 24.166501 177.345115 -10.693904 -171.836666 -2.283485 -1.580337 0.338311 -19.767687 -1.057251 -12.211970 -0.005321 6.100217 17.727013 0.702636 -19.017764 12.401272 0.829100 5.809100 16.231500 -0.172364 1.739294 -2.278176 10.586444 0.937352 -34.628009 -3.381321 -14.552574 39.872449 -0.869061 0.643474 -0.830387 -0.512400 -4.588200 12.737800 -3.682512 -1.353382 -5.235642 1.112789 -1.942336 -3.427426 -0.312317 -0.999548 7.829620 -7.028198 -1.331267 -1.317304 9.203848 -3.852829 4.267693 3.667100 -1.799100 -2.921500 6.714880 -3.799266 1.351173 -94.024482 -8.735219 20.404769 9.933204 -17.039166 -1.591907 -0.002980 -0.377223 26.264494 8.887512 8.585974 1.365100 -7.125000 0.000000 0.000000 -15.612700 38.559400 2.550700 -7.337232 2.868729 2.665846 95.584278 -5.728629 0.479131 -12.698178 24.773936 -2.778494 0.770568 -1.552427 32.567521 0.226255 -7.676245 0.149200 7.125000 0.000000 0.000000 21.158500 -36.007200 4.957100 
0.140097 17.967253 23.960275 176.969266 -11.435199 -171.661775 -2.353488 -1.538947 0.445879 -19.935583 -0.809277 -11.109457 -0.122690 5.640708 16.502910 0.676761 -19.242814 13.082666 0.984700 6.316400 17.705300 -0.036165 1.832300 -2.391183 9.477714 1.110581 -34.368941 -2.244063 -13.308183 35.446596 -0.431018 -1.199628 1.842530 -0.053200 -1.488100 4.092900 -4.194983 -1.551048 -5.265498 1.138833 -2.141481 -3.427581 -0.033766 -1.135947 7.921412 -7.160941 -1.328921 -1.339396 9.352893 -3.894554 4.194605 3.750900 -1.823500 -2.945600 6.727447 -3.837116 1.348470 -93.980206 -9.183845 21.939716 10.316939 -17.657785 -1.715726 0.001652 -0.387212 25.123084 8.981617 8.736220 1.404400 -7.125000 0.000000 0.000000 -15.573700 38.722700 2.479400 -7.339689 2.837402 2.658428 95.687943 -5.857372 -0.473121 -12.346981 24.316758 -2.689208 0.750902 -1.548720 33.089407 0.124448 -7.764807 0.162200 7.125000 0.000000 0.000000 21.110800 -36.101000 4.892900 
0.157981 17.974650 23.752173 176.816402 -12.236127 -171.518260 -2.426322 -1.488657 0.549241 -19.804378 -0.742434 -9.869471 -0.249612 5.127967 15.141005 0.678234 -19.177421 13.762578 1.158400 6.833100 19.221700 0.130499 1.922996 -2.476028 8.566909 1.325757 -33.982181 -1.218261 -11.995591 31.122450 -0.402510 -1.669334 3.137392 -0.038300 -1.263100 3.472900 -4.390986 -1.673722 -5.316096 1.162134 -2.266013 -3.416818 0.060902 -1.221067 8.037495 -7.215919 -1.375200 -1.422131 9.509911 -3.993029 4.183091 3.824700 -1.875900 -2.923400 6.746812 -3.873431 1.349745 -93.856311 -9.652150 23.596842 10.693011 -18.249398 -1.839818 0.007399 -0.398830 24.108497 8.973452 8.940359 1.435400 -7.125000 0.000000 0.000000 -15.635500 38.931600 2.407000 -7.364454 2.813948 2.645541 96.030513 -5.948888 -1.915059 -11.979506 23.849495 -2.596838 0.737376 -1.543154 33.790980 0.190542 -7.691887 0.152500 7.125000 0.000000 0.000000 21.151100 -36.042900 4.935400 
0.174431 17.978293 23.538550 176.972478 -13.096339 -171.422556 -2.507131 -1.425372 0.663223 -19.304990 -0.722404 -8.558336 -0.374751 4.569337 13.670835 0.688416 -19.128327 14.400911 1.205600 6.966100 19.614800 0.324269 1.994369 -2.514395 7.903448 1.658097 -33.460549 -0.337544 -10.676366 27.049130 -0.582056 -1.391653 3.362741 -0.064700 -1.640600 4.513300 -4.165850 -1.795230 -5.375008 1.216009 -2.437520 -3.429432 0.067867 -1.305644 8.047904 -7.340488 -1.430827 -1.436987 9.626562 -4.090974 4.207128 3.917000 -1.920300 -2.895800 6.767300 -3.910591 1.346933 -93.823105 -9.886209 24.985662 11.105465 -18.885864 -1.979436 0.014192 -0.406774 23.273782 9.043128 8.864450 1.435700 -7.125000 0.000000 0.000000 -15.563900 38.869800 2.419700 -7.396495 2.813064 2.637186 96.316116 -6.166390 -3.350131 -11.608685 23.377268 -2.510007 0.730958 -1.542039 34.702126 0.347146 -7.746692 0.136300 7.125000 0.000000 0.000000 21.289700 -36.104200 4.937600 
0.186906 17.982157 23.315875 177.014620 -13.880539 -171.285796 -2.577956 -1.351395 0.771531 -18.946362 -0.699025 -7.212894 -0.482419 4.009537 12.191334 0.679926 -19.231893 14.856204 1.119900 6.722400 18.895500 0.501788 2.032402 -2.529480 7.067901 2.118764 -32.766535 0.370013 -9.382471 23.251708 -0.648399 -1.539362 4.695567 -0.004300 -0.423900 1.164700 -4.044896 -1.967617 -5.557129 1.285137 -2.668736 -3.441606 0.202575 -1.429146 8.148484 -7.535532 -1.500922 -1.511320 9.625015 -4.180472 4.208992 3.969700 -1.953100 -2.874800 6.786101 -3.915754 1.341587 -93.955516 -10.030754 26.152267 11.514766 -19.518578 -2.122295 0.019411 -0.415236 22.515231 9.215569 8.831522 1.459700 -7.125000 0.000000 0.000000 -15.416100 38.858800 2.399700 -7.396720 2.797792 2.631571 96.287266 -6.361676 -4.369434 -11.185683 22.834854 -2.409952 0.715729 -1.529304 35.476511 0.409352 -7.849976 0.130100 7.125000 0.000000 0.000000 21.379400 -36.216200 4.898400 
0.198719 17.985359 23.081056 176.891424 -14.662778 -171.183079 -2.621186 -1.251671 0.861792 -18.771134 -1.021385 -5.581214 -0.582421 3.457756 10.716242 0.691016 -18.881542 15.060704 1.156400 6.827500 19.205200 0.658308 2.019073 -2.515667 6.061137 2.681004 -31.878398 0.885489 -8.208358 19.919807 -0.561904 -2.162969 5.806968 -0.019600 0.903600 -2.483700 -4.048176 -2.133481 -5.832936 1.324963 -2.869920 -3.432302 0.234345 -1.542283 8.362595 -7.518975 -1.606385 -1.584327 9.521197 -4.297781 4.193738 3.918800 -2.006100 -2.881400 6.805389 -3.901313 1.349102 -94.073166 -10.185683 27.076909 11.826362 -20.002857 -2.234882 0.024364 -0.423554 22.052248 9.313907 8.808688 1.472700 -7.125000 0.000000 0.000000 -15.333800 38.851000 2.389100 -7.396839 2.777672 2.631737 96.326047 -6.508705 -5.521666 -10.721729 22.255242 -2.297311 0.697273 -1.505919 36.262490 0.513359 -7.751553 0.114100 7.125000 0.000000 0.000000 21.457300 -36.143100 4.959500 
0.215499 17.981164 22.836191 176.951349 -15.509221 -171.196628 -2.641481 -1.104420 0.955360 -18.351398 -2.070908 -3.363698 -0.709564 2.767883 8.863522 0.754012 -17.585452 14.903662 1.309900 7.249700 20.457400 0.785387 1.959041 -2.467111 5.410016 3.161328 -31.094299 1.207588 -7.352492 17.533312 -0.574116 -2.189307 4.845276 -0.038000 -1.258700 3.460900 -3.825755 -2.241467 -6.104064 1.357130 -3.021196 -3.428832 0.128392 -1.612879 8.491775 -7.470860 -1.703350 -1.454907 9.483190 -4.430756 4.155024 3.913700 -2.071000 -2.946900 6.817666 -3.907134 1.365528 -94.163502 -10.151300 27.898049 12.126554 -20.461906 -2.346213 0.031264 -0.433019 21.628215 9.298739 8.756163 1.462000 -7.125000 0.000000 0.000000 -15.341900 38.805800 2.408000 -7.418779 2.767481 2.644301 96.524314 -6.783848 -6.741335 -10.339376 21.780562 -2.215120 0.690173 -1.503890 37.048367 0.659584 -7.860897 0.098700 7.125000 0.000000 0.000000 21.604800 -36.252100 4.936200 
0.236365 17.968909 22.583928 177.246669 -16.245716 -171.338373 -2.651726 -0.944806 1.059452 -17.712687 -2.979550 -1.150812 -0.810040 2.096610 7.078917 0.799932 -16.348229 14.760810 1.445000 7.599100 21.502800 0.921849 1.882493 -2.413308 5.173837 3.597156 -30.416859 1.419367 -6.724163 15.757976 -0.127431 -3.886494 6.806442 -0.017800 0.860700 -2.365500 -3.397971 -2.302111 -6.348025 1.416170 -3.141419 -3.423145 0.066032 -1.661268 8.600074 -7.408544 -1.789080 -1.287012 9.385566 -4.536747 4.107084 3.877600 -2.121000 -3.030900 6.840609 -3.903878 1.384479 -94.323095 -10.005614 28.614512 12.424755 -20.905236 -2.456879 0.036867 -0.448050 21.123143 9.242277 9.118226 1.510700 -7.125000 0.000000 0.000000 -15.485500 39.167400 2.289900 -7.418897 2.762424 2.660766 96.621298 -7.054226 -7.795511 -9.981466 21.320829 -2.136380 0.666399 -1.498455 37.770144 0.557593 -7.900955 0.110400 7.125000 0.000000 0.000000 21.546600 -36.302700 4.892700 
0.251269 17.940978 22.333984 176.539460 -16.729064 -171.029053 -2.599943 -0.834099 1.089748 -18.289635 -3.930502 0.698743 -0.873228 1.623027 5.779869 0.804274 -15.185362 14.430333 1.603500 7.986200 22.672300 0.883104 1.805619 -2.356157 4.653371 2.998537 -30.156889 1.495873 -6.352196 14.815955 -0.357471 -3.203198 6.445555 -0.010600 -0.664200 1.825200 -3.982819 -2.437688 -6.748076 1.393599 -3.242145 -3.441053 0.178314 -1.740378 8.736797 -7.293100 -1.854666 -1.278244 9.169072 -4.576761 4.159077 3.731200 -2.135500 -3.041400 6.852612 -3.880774 1.390245 -94.546371 -9.770154 28.966956 12.657530 -21.252825 -2.542842 0.037694 -0.464132 20.733377 9.310515 9.835687 1.637600 -7.125000 0.000000 0.000000 -15.612700 39.887400 2.024600 -7.421676 2.750788 2.654168 96.638532 -7.208902 -9.125443 -9.551819 20.727162 -2.025688 0.624225 -1.457852 38.956340 0.423362 -7.470579 0.115000 7.125000 0.000000 0.000000 21.367700 -35.940000 5.049700 
0.291564 17.909073 22.073442 176.820594 -17.069211 -171.165483 -2.590383 -0.710284 1.157085 -17.713821 -4.609059 2.363127 -0.912655 1.302237 4.931131 0.818114 -14.091393 13.896925 1.674400 8.152100 23.177100 0.997872 1.725228 -2.248101 4.945980 3.297989 -29.589143 1.553613 -6.229067 14.512668 -0.353881 -3.256283 6.864643 -0.053800 -1.496900 4.117100 -3.727611 -2.440977 -6.975562 1.448326 -3.279226 -3.452237 0.241849 -1.752477 8.770770 -7.249275 -1.907811 -1.275558 9.031622 -4.610797 4.248942 3.648200 -2.144800 -3.014800 6.885615 -3.864018 1.397356 -94.697245 -9.318476 29.240008 12.882647 -21.604706 -2.631830 0.040439 -0.471837 20.288197 9.421249 9.956326 1.678000 -7.125000 0.000000 0.000000 -15.553200 40.022000 1.963300 -7.413478 2.756470 2.645697 96.708785 -7.366332 -10.669689 -9.169044 20.162914 -1.931171 0.603533 -1.421397 40.320688 0.577012 -7.141440 0.090500 7.125000 0.000000 0.000000 21.432900 -35.667400 5.219800 
0.334399 17.878603 21.807380 177.009746 -17.314410 -171.159229 -2.545008 -0.578687 1.225233 -17.294169 -5.139963 4.237590 -0.961419 0.765309 3.504398 0.813760 -12.776026 13.412310 1.564000 7.891700 22.385700 1.064990 1.657896 -2.155943 5.573540 3.004536 -29.410923 1.553956 -6.325472 14.806856 -0.460780 -3.031272 7.865344 -0.107300 -2.112300 5.816100 -3.525800 -2.386304 -7.363079 1.470457 -3.225050 -3.465392 0.218671 -1.717662 8.844855 -7.228139 -1.968542 -1.269646 8.993503 -4.683143 4.246786 3.632600 -2.178300 -3.025700 6.903126 -3.850827 1.405573 -94.718055 -8.721906 29.535834 13.118384 -22.001787 -2.734177 0.046991 -0.471797 19.968571 9.517405 9.305613 1.589900 -7.125000 0.000000 0.000000 -15.312900 39.394100 2.175000 -7.418722 2.743353 2.640706 96.916730 -7.551436 -11.992144 -8.970156 19.844044 -1.892167 0.611371 -1.418431 41.149081 0.897671 -7.214609 0.056900 7.125000 0.000000 0.000000 21.702300 -35.742600 5.251200 
0.379663 17.862705 21.539331 177.060463 -17.417020 -171.154740 -2.475558 -0.441657 1.290530 -17.073774 -5.486866 6.314023 -0.998271 0.097136 1.726729 0.788767 -11.374847 13.070823 1.273600 7.152600 20.168300 1.116803 1.599060 -2.084662 6.218667 2.548911 -29.338465 1.535760 -6.469853 15.208776 -0.479530 -3.416363 10.575442 -0.084300 -1.872700 5.154100 -3.482059 -2.329557 -7.730624 1.476582 -3.141804 -3.463746 0.199756 -1.679630 8.984438 -7.145367 -1.992675 -1.392919 8.953009 -4.698824 4.252801 3.584700 -2.187600 -3.005900 6.923753 -3.825227 1.414534 -94.808040 -8.123750 29.481994 13.294934 -22.320306 -2.817575 0.054019 -0.471227 19.800394 9.502884 8.618784 1.475300 -7.125000 0.000000 0.000000 -15.164700 38.719900 2.411600 -7.421428 2.714693 2.628794 97.113336 -7.574044 -13.245590 -8.758707 19.501256 -1.853591 0.606492 -1.424600 41.883484 0.997214 -7.395722 0.047900 7.125000 0.000000 0.000000 21.825400 -35.914700 5.186300 
